<svg width="100" height="140" viewBox="0 0 100 140" fill="none" xmlns="http://www.w3.org/2000/svg">
<path d="M22.2227 0H77.5427C78.2616 0.303814 79.3136 0.467633 80.0948 0.594512C87.7854 1.84347 94.4142 7.74368 97.5427 14.9007C98.6526 17.3917 99.328 20.0545 99.5398 22.7734C99.7875 25.8825 99.6114 31.2262 99.6113 34.5157L99.612 57.208L99.6106 83.7147C99.6103 87.9632 99.8021 93.6677 99.5454 97.7695C99.4119 99.7511 98.9755 101.701 98.2513 103.55C96.0131 109.232 92.5722 112.835 86.9406 115.347C85.0547 116.188 83.8926 116.221 82.2658 116.799C84.9531 120.412 87.9776 125.347 90.5358 129.181L95.0819 136.037C95.8474 137.195 97.0027 138.841 97.6156 140H83.8643C81.9245 137.799 79.5265 133.183 77.306 130.45C73.2381 130.589 68.1862 130.449 64.0651 130.449L37.4324 130.447L28.027 130.436C26.219 130.434 23.8895 130.375 22.1276 130.539C19.9546 133.679 18.2687 136.761 15.8767 140H2.07517C2.87183 138.383 4.09724 136.625 5.11073 135.097L9.86991 127.969L14.3047 121.298C15.0831 120.129 16.6092 117.687 17.5565 116.802C16.4838 116.477 15.4253 116.247 14.323 115.888C9.15159 114.179 4.86956 110.488 2.41737 105.624C-0.635284 99.5855 0.0677258 91.8334 0.0745617 85.1674L0.0751083 63.7049L0.0718267 37.6977C0.0699127 33.2947 -0.106318 27.5535 0.159053 23.2956C0.280186 21.0555 0.694033 18.8409 1.39007 16.7084C3.87944 9.12427 9.6565 3.52624 17.2605 1.12721C18.4567 0.749837 21.4717 0.430083 22.2227 0ZM79.1237 63.1109C81.6481 62.4319 83.6849 60.5116 83.7823 57.7689C83.887 54.8168 83.8026 51.8237 83.8052 48.8638L83.8173 39.4872C83.8193 38.3317 83.7786 36.9312 83.836 35.8024C84.2405 27.845 78.7997 28.3887 72.7999 28.4039L63.8707 28.4132L33.9593 28.4076L25.2605 28.4144C24.0105 28.4238 22.4046 28.5324 21.2088 28.4834C15.1097 29.4392 15.8809 34.1316 15.901 38.8655L15.9268 47.8008L15.9237 53.9131C15.8992 56.8086 15.4759 60.1278 18.2394 62.064C18.9699 62.5759 19.8829 62.987 20.7747 63.0418C23.3301 63.227 25.9833 63.1683 28.5471 63.1665L41.8643 63.1545C54.1422 63.1481 66.8794 63.3311 79.1237 63.1109ZM78.6422 89.3875C75.11 89.3833 72.2422 92.2413 72.2343 95.7734C72.2265 99.3055 75.0815 102.176 78.6136 102.188C82.1509 102.2 85.0269 99.3396 85.0349 95.8021C85.0428 92.2648 82.1796 89.3916 78.6422 89.3875ZM68.3753 117.047C56.3317 117.045 43.9365 116.889 31.9261 117.075C31.3028 117.144 31.1383 117.149 30.7374 117.636C29.3253 119.351 27.6788 122.639 26.2673 124.202C31.2937 124.062 36.6382 124.147 41.6982 124.148L67.9494 124.146C69.7417 124.148 71.7435 124.194 73.5182 124.141C71.8682 122.255 69.7936 118.42 68.3753 117.047ZM19.9595 89.4857C17.6834 89.8944 15.8041 91.4977 15.042 93.6809C14.28 95.8642 14.7535 98.2887 16.2811 100.025C17.8086 101.761 20.1531 102.539 22.4156 102.061C25.8406 101.338 28.051 97.9997 27.38 94.5641C26.709 91.1285 23.4049 88.8673 19.9595 89.4857ZM28.6492 11.1446C28.6674 13.0868 28.8161 16.4049 28.6892 18.1997C30.8982 17.8933 36.8237 18.0489 39.3604 18.051L60.7249 18.0589C63.3424 18.0597 68.6412 18.2252 71.0941 18.0432C70.8456 16.3296 70.9159 13.1503 70.9456 11.3241C70.4166 11.1091 64.0919 11.1839 62.9547 11.1827L40.1559 11.1788C36.837 11.179 31.7984 11.3388 28.6492 11.1446Z" fill="#CD93E5"/>
</svg>
