<svg width="140" height="107" viewBox="0 0 140 107" fill="none" xmlns="http://www.w3.org/2000/svg">
<path d="M41.6454 0.102278C42.1637 0.0711066 42.6827 0.0484121 43.2018 0.03433C46.9297 -0.0515293 51.0386 0.0505995 54.807 0.0515565L79.1959 0.0518298L91.2162 0.0430794C96.5701 0.0212044 102.244 -0.459772 106.753 3.04747C107.83 3.92111 109.042 5.11534 109.714 6.34048C115.838 17.4526 121.729 28.5461 127.659 39.7771C130.74 44.9426 136.31 46.0189 136.25 52.9326C136.229 61.2363 136.245 69.5255 136.242 77.831C136.241 79.972 136.444 83.6556 134.571 85.1535C132.6 86.7295 128.53 86.4119 126.081 86.386L119.507 86.3625L98.7793 86.4301L38.529 86.434L19.5351 86.3605C16.565 86.3601 13.5975 86.3936 10.6285 86.4026C9.00366 86.409 6.81955 86.1488 5.52391 85.1043C3.26771 83.2852 3.73631 77.8723 3.73185 75.1737L3.72766 66.5681C3.72896 61.7753 3.4573 54.3258 4.18039 49.7652C4.65881 46.7478 10.7072 42.8287 12.1371 40.2467C13.496 37.793 14.8276 35.0036 16.1568 32.4778C19.5077 26.0851 22.931 19.7304 26.4258 13.4153C30.8388 5.41927 31.2956 1.38347 41.6454 0.102278ZM94.4043 36.2105L105.18 36.2138C107.232 36.213 109.769 36.2659 111.797 36.1376C115.952 33.509 112.732 29.6152 111.051 26.6021C110.145 24.9781 109.243 23.3517 108.34 21.7261L103.928 13.686C102.12 10.3865 100.766 6.85769 96.5215 6.23658C91.7464 5.53781 86.6325 5.8107 81.7798 5.80988L55.215 5.81644C53.427 5.80933 51.639 5.81644 49.8512 5.83763C49.154 5.85158 46.8004 5.95548 46.2246 5.85786C38.8705 6.62718 38.723 9.04587 35.4331 15.0313L30.2112 24.4829C29.0653 26.5861 27.748 28.6129 26.7237 30.7768C26.3833 31.4959 26.1777 32.4499 26.2719 33.2419C26.3865 34.2049 26.9225 35.331 27.7785 35.8448C28.2181 36.1147 28.6885 36.1393 29.1929 36.1625C32.1144 36.2767 35.0604 36.2232 37.9853 36.2145L51.2329 36.2094L94.4043 36.2105ZM84.6408 79.6208C84.9282 79.4456 85.2463 79.3185 85.2845 78.9399C85.4788 77.0073 85.6003 66.1283 85.2085 65.0244C83.9557 64.3306 75.5235 64.566 73.5386 64.5657L55.6104 64.5984C55.3215 64.7504 54.7514 65.0317 54.7583 65.4056C54.8028 67.7816 54.2061 77.7557 55.0229 79.3363C55.7817 79.8171 65.3149 79.639 66.8622 79.6386L84.6408 79.6208ZM116.41 75.3962C121.959 74.6699 125.859 69.5708 125.108 64.0258C124.356 58.4808 119.24 54.6037 113.698 55.3801C108.192 56.1516 104.345 61.2285 105.091 66.7382C105.838 72.2478 110.897 76.1178 116.41 75.3962ZM24.815 75.477C30.3565 75.5382 34.912 71.1222 35.0233 65.5815C35.1346 60.0407 30.76 55.4455 25.2205 55.2842C19.6097 55.1208 14.9423 59.564 14.8296 65.176C14.717 70.7879 19.2022 75.415 24.815 75.477Z" fill="#CC92E4"/>
<path d="M110.903 88.9702C111.75 88.9506 112.623 88.9651 113.471 88.9922C118.714 89.1599 124.026 88.8736 129.259 88.9766C129.483 91.4174 129.328 94.6207 129.378 97.1193C129.432 99.7975 128.564 102.374 126.604 104.28C126.399 104.487 126.179 104.68 125.947 104.857C123.987 106.399 121.486 107.081 119.014 106.748C116.584 106.43 114.275 105.167 112.761 103.211C110.507 100.3 110.916 96.135 110.866 92.6536C110.854 91.7993 110.804 89.6878 110.903 88.9702Z" fill="#CC92E4"/>
<path d="M11.0305 88.9492C15.0702 89.1697 19.5491 88.9392 23.6289 89.0172C25.0326 89.044 27.5354 88.8751 28.8275 89.018C29.0531 89.2891 29.1089 89.8146 29.0869 90.1577C28.7466 95.4596 30.3954 100.068 26.4395 104.251C22.981 107.286 18.3163 107.749 14.4648 105.095C9.23528 101.492 10.9551 94.6944 10.7753 89.3207C10.7753 89.3207 11.0082 88.9818 11.0305 88.9492Z" fill="#CC92E4"/>
<path d="M0 30.9849C0.816907 28.8894 1.4745 27.0436 3.89728 26.1392C6.79238 25.0584 13.4546 25.3991 16.6581 25.4856C16.0401 26.4654 15.5214 27.4951 14.9829 28.5197C13.1619 31.9835 11.3345 35.4107 9.68804 38.9636C4.70969 39.5325 1.98291 38.5464 0 33.6777V30.9849Z" fill="#CC92E4"/>
<path d="M123.388 25.4958C126.099 25.4634 128.84 25.4228 131.548 25.4362C136.061 25.4586 138.225 26.4207 140 30.6993V33.806C138.031 38.4797 135.581 39.4429 130.669 39.0066C129.839 38.0889 127.904 34.0249 127.231 32.7072C125.978 30.2889 124.697 27.885 123.388 25.4958Z" fill="#CC92E4"/>
</svg>
